<svg xmlns="http://www.w3.org/2000/svg" xmlns:xlink="http://www.w3.org/1999/xlink" width="1056" zoomAndPan="magnify" viewBox="0 0 792 283.499996" height="378" preserveAspectRatio="xMidYMid meet" version="1.2"><defs><clipPath id="3266cedd23"><path d="M 12 69.171875 L 190 69.171875 L 190 224.898438 L 12 224.898438 Z M 12 69.171875 "/></clipPath></defs><g id="13d6e5390f"><g clip-rule="nonzero" clip-path="url(#3266cedd23)"><path style=" stroke:none;fill-rule:nonzero;fill:#000000;fill-opacity:1;" d="M 152.867188 94.078125 C 149.640625 90.734375 146.113281 87.671875 142.359375 84.9375 C 140.925781 83.882812 139.34375 82.828125 137.566406 81.707031 C 124.453125 73.503906 109.316406 69.171875 93.785156 69.171875 C 48.816406 69.171875 12.234375 105.113281 12.234375 149.292969 C 12.234375 181.886719 32.066406 210.992188 62.769531 223.398438 C 62.769531 223.398438 65.1875 224.367188 66.671875 224.679688 L 89.980469 184.308594 L 122.59375 212.789062 L 189.761719 94.078125 Z M 140.316406 142.175781 L 117.800781 181.972656 L 98.542969 166.652344 L 107.964844 149.71875 L 111.96875 151.5625 C 108.261719 146.457031 104.210938 135.882812 104.175781 129.640625 L 62.503906 201.820312 C 43.480469 191.03125 31.585938 171.199219 31.585938 149.273438 C 31.570312 115.789062 59.472656 88.511719 93.785156 88.511719 C 105.691406 88.511719 117.273438 91.820312 127.285156 98.097656 C 128.6875 98.972656 129.890625 99.777344 130.960938 100.570312 C 134.765625 103.335938 138.242188 106.546875 141.304688 110.089844 L 144.203125 113.433594 L 167.691406 113.433594 L 147.710938 129.164062 L 140.332031 142.207031 L 140.332031 142.175781 Z M 140.316406 142.175781 "/></g><g style="fill:#000000;fill-opacity:1;"><g transform="translate(213.366542, 137.920036)"><path style="stroke:none" d="M 20.046875 -34.859375 L 20.046875 -8.53125 L 60.859375 -8.53125 L 60.859375 0 L 9.25 0 L 9.25 -76.078125 L 59.734375 -76.078125 L 59.734375 -67.546875 L 20.046875 -67.546875 L 20.046875 -43.484375 L 56.140625 -43.484375 L 56.140625 -34.859375 Z M 20.046875 -34.859375 "/></g></g><g style="fill:#000000;fill-opacity:1;"><g transform="translate(276.383908, 137.920036)"><path style="stroke:none" d="M 34.75 -1.03125 L 56.03125 -76.078125 L 67.03125 -76.078125 L 44.109375 0 L 24.578125 0 L 1.75 -76.078125 L 13.359375 -76.078125 L 34.546875 -1.03125 Z M 34.75 -1.03125 "/></g></g><g style="fill:#000000;fill-opacity:1;"><g transform="translate(342.896534, 137.920036)"><path style="stroke:none" d="M 38.96875 1.03125 C 31.90625 1.03125 25.835938 -0.507812 20.765625 -3.59375 C 15.691406 -6.675781 11.816406 -11.128906 9.140625 -16.953125 C 6.472656 -22.785156 5.140625 -29.816406 5.140625 -38.046875 C 5.140625 -46.265625 6.472656 -53.285156 9.140625 -59.109375 C 11.816406 -64.941406 15.691406 -69.398438 20.765625 -72.484375 C 25.835938 -75.566406 31.90625 -77.109375 38.96875 -77.109375 C 46.03125 -77.109375 52.078125 -75.566406 57.109375 -72.484375 C 62.148438 -69.398438 66.003906 -64.941406 68.671875 -59.109375 C 71.347656 -53.285156 72.6875 -46.265625 72.6875 -38.046875 C 72.6875 -29.816406 71.347656 -22.785156 68.671875 -16.953125 C 66.003906 -11.128906 62.148438 -6.675781 57.109375 -3.59375 C 52.078125 -0.507812 46.03125 1.03125 38.96875 1.03125 Z M 38.96875 -7.8125 C 46.09375 -7.8125 51.640625 -10.46875 55.609375 -15.78125 C 59.585938 -21.09375 61.578125 -28.515625 61.578125 -38.046875 C 61.578125 -47.566406 59.585938 -54.984375 55.609375 -60.296875 C 51.640625 -65.609375 46.09375 -68.265625 38.96875 -68.265625 C 31.769531 -68.265625 26.164062 -65.609375 22.15625 -60.296875 C 18.144531 -54.984375 16.140625 -47.566406 16.140625 -38.046875 C 16.140625 -28.515625 18.144531 -21.09375 22.15625 -15.78125 C 26.164062 -10.46875 31.769531 -7.8125 38.96875 -7.8125 Z M 38.96875 -7.8125 "/></g></g><g style="fill:#000000;fill-opacity:1;"><g transform="translate(418.558541, 137.920036)"><path style="stroke:none" d="M 20.046875 -76.078125 L 20.046875 -8.84375 L 54.484375 -8.84375 L 54.484375 0 L 9.25 0 L 9.25 -76.078125 Z M 20.046875 -76.078125 "/></g></g><g style="fill:#000000;fill-opacity:1;"><g transform="translate(472.837733, 137.920036)"><path style="stroke:none" d="M 37.015625 1.03125 C 28.097656 1.03125 21.117188 -1.398438 16.078125 -6.265625 C 11.046875 -11.140625 8.53125 -17.859375 8.53125 -26.421875 L 8.53125 -76.078125 L 19.21875 -76.078125 L 19.21875 -25.8125 C 19.21875 -20.1875 20.8125 -15.78125 24 -12.59375 C 27.1875 -9.40625 31.628906 -7.8125 37.328125 -7.8125 C 43.015625 -7.8125 47.453125 -9.40625 50.640625 -12.59375 C 53.828125 -15.78125 55.421875 -20.1875 55.421875 -25.8125 L 55.421875 -76.078125 L 65.59375 -76.078125 L 65.59375 -26.421875 C 65.59375 -17.859375 63.070312 -11.140625 58.03125 -6.265625 C 53 -1.398438 45.992188 1.03125 37.015625 1.03125 Z M 37.015625 1.03125 "/></g></g><g style="fill:#000000;fill-opacity:1;"><g transform="translate(544.798866, 137.920036)"><path style="stroke:none" d="M 1.84375 -76.078125 L 58.703125 -76.078125 L 58.703125 -67.546875 L 35.671875 -67.546875 L 35.671875 0 L 24.875 0 L 24.875 -67.546875 L 1.84375 -67.546875 Z M 1.84375 -76.078125 "/></g></g><g style="fill:#000000;fill-opacity:1;"><g transform="translate(603.190148, 137.920036)"><path style="stroke:none" d="M 20.046875 0 L 9.25 0 L 9.25 -76.078125 L 20.046875 -76.078125 Z M 20.046875 0 "/></g></g><g style="fill:#000000;fill-opacity:1;"><g transform="translate(630.329638, 137.920036)"><path style="stroke:none" d="M 38.96875 1.03125 C 31.90625 1.03125 25.835938 -0.507812 20.765625 -3.59375 C 15.691406 -6.675781 11.816406 -11.128906 9.140625 -16.953125 C 6.472656 -22.785156 5.140625 -29.816406 5.140625 -38.046875 C 5.140625 -46.265625 6.472656 -53.285156 9.140625 -59.109375 C 11.816406 -64.941406 15.691406 -69.398438 20.765625 -72.484375 C 25.835938 -75.566406 31.90625 -77.109375 38.96875 -77.109375 C 46.03125 -77.109375 52.078125 -75.566406 57.109375 -72.484375 C 62.148438 -69.398438 66.003906 -64.941406 68.671875 -59.109375 C 71.347656 -53.285156 72.6875 -46.265625 72.6875 -38.046875 C 72.6875 -29.816406 71.347656 -22.785156 68.671875 -16.953125 C 66.003906 -11.128906 62.148438 -6.675781 57.109375 -3.59375 C 52.078125 -0.507812 46.03125 1.03125 38.96875 1.03125 Z M 38.96875 -7.8125 C 46.09375 -7.8125 51.640625 -10.46875 55.609375 -15.78125 C 59.585938 -21.09375 61.578125 -28.515625 61.578125 -38.046875 C 61.578125 -47.566406 59.585938 -54.984375 55.609375 -60.296875 C 51.640625 -65.609375 46.09375 -68.265625 38.96875 -68.265625 C 31.769531 -68.265625 26.164062 -65.609375 22.15625 -60.296875 C 18.144531 -54.984375 16.140625 -47.566406 16.140625 -38.046875 C 16.140625 -28.515625 18.144531 -21.09375 22.15625 -15.78125 C 26.164062 -10.46875 31.769531 -7.8125 38.96875 -7.8125 Z M 38.96875 -7.8125 "/></g></g><g style="fill:#000000;fill-opacity:1;"><g transform="translate(705.991634, 137.920036)"><path style="stroke:none" d="M 57.265625 -1.03125 L 56.953125 -76.078125 L 67.140625 -76.078125 L 67.140625 0 L 48.734375 0 L 19.4375 -75.046875 L 19.21875 -75.046875 L 19.640625 0 L 9.25 0 L 9.25 -76.078125 L 27.765625 -76.078125 L 57.0625 -1.03125 Z M 57.265625 -1.03125 "/></g></g><g style="fill:#000000;fill-opacity:1;"><g transform="translate(213.366542, 230.224911)"><path style="stroke:none" d="M 34.234375 1.03125 C 25.390625 1.03125 18.3125 -1.363281 13 -6.15625 C 7.6875 -10.957031 4.722656 -17.675781 4.109375 -26.3125 L 14.8125 -26.3125 C 15.21875 -20.488281 17.148438 -15.945312 20.609375 -12.6875 C 24.078125 -9.4375 28.6875 -7.8125 34.4375 -7.8125 C 40.40625 -7.8125 45.050781 -8.992188 48.375 -11.359375 C 51.695312 -13.722656 53.359375 -17.03125 53.359375 -21.28125 C 53.359375 -24.78125 52.363281 -27.398438 50.375 -29.140625 C 48.382812 -30.890625 45.8125 -32.160156 42.65625 -32.953125 C 39.507812 -33.742188 36.15625 -34.410156 32.59375 -34.953125 C 29.507812 -35.429688 26.40625 -36.015625 23.28125 -36.703125 C 20.164062 -37.390625 17.320312 -38.398438 14.75 -39.734375 C 12.175781 -41.066406 10.117188 -42.96875 8.578125 -45.4375 C 7.035156 -47.90625 6.265625 -51.128906 6.265625 -55.109375 C 6.265625 -62.234375 8.734375 -67.679688 13.671875 -71.453125 C 18.609375 -75.222656 25.460938 -77.109375 34.234375 -77.109375 C 42.460938 -77.109375 49.039062 -74.796875 53.96875 -70.171875 C 58.90625 -65.546875 61.648438 -59.15625 62.203125 -51 L 51.609375 -51 C 51.335938 -56.476562 49.625 -60.722656 46.46875 -63.734375 C 43.3125 -66.753906 39.097656 -68.265625 33.828125 -68.265625 C 28.617188 -68.265625 24.539062 -67.1875 21.59375 -65.03125 C 18.644531 -62.875 17.171875 -59.804688 17.171875 -55.828125 C 17.171875 -52.878906 18.078125 -50.632812 19.890625 -49.09375 C 21.710938 -47.550781 24.113281 -46.4375 27.09375 -45.75 C 30.070312 -45.0625 33.238281 -44.445312 36.59375 -43.90625 C 39.820312 -43.425781 43.078125 -42.804688 46.359375 -42.046875 C 49.648438 -41.296875 52.648438 -40.195312 55.359375 -38.75 C 58.066406 -37.3125 60.242188 -35.273438 61.890625 -32.640625 C 63.535156 -30.003906 64.359375 -26.523438 64.359375 -22.203125 C 64.359375 -14.941406 61.703125 -9.253906 56.390625 -5.140625 C 51.078125 -1.023438 43.691406 1.03125 34.234375 1.03125 Z M 34.234375 1.03125 "/></g></g><g style="fill:#000000;fill-opacity:1;"><g transform="translate(279.981974, 230.224911)"><path style="stroke:none" d="M 1.84375 -76.078125 L 58.703125 -76.078125 L 58.703125 -67.546875 L 35.671875 -67.546875 L 35.671875 0 L 24.875 0 L 24.875 -67.546875 L 1.84375 -67.546875 Z M 1.84375 -76.078125 "/></g></g><g style="fill:#000000;fill-opacity:1;"><g transform="translate(338.373257, 230.224911)"><path style="stroke:none" d="M 70.53125 0 L 58.90625 0 L 52.953125 -19.125 L 18.09375 -19.125 L 12.125 0 L 1.125 0 L 26.421875 -76.078125 L 45.4375 -76.078125 Z M 35.46875 -75.046875 L 20.765625 -27.765625 L 50.28125 -27.765625 L 35.671875 -75.046875 Z M 35.46875 -75.046875 "/></g></g><g style="fill:#000000;fill-opacity:1;"><g transform="translate(407.867138, 230.224911)"><path style="stroke:none" d="M 39.890625 -42.875 L 41.328125 -42.875 C 49.140625 -42.875 55.222656 -41.019531 59.578125 -37.3125 C 63.929688 -33.613281 66.109375 -28.476562 66.109375 -21.90625 C 66.109375 -15.050781 63.828125 -9.6875 59.265625 -5.8125 C 54.710938 -1.9375 48.359375 0 40.203125 0 L 9.25 0 L 9.25 -76.078125 L 39.484375 -76.078125 C 46.054688 -76.078125 51.175781 -74.566406 54.84375 -71.546875 C 58.507812 -68.535156 60.34375 -64.289062 60.34375 -58.8125 C 60.34375 -53.875 58.546875 -50.015625 54.953125 -47.234375 C 51.359375 -44.460938 46.335938 -43.078125 39.890625 -43.078125 Z M 49.25 -55.203125 C 49.25 -59.046875 48.082031 -62.0625 45.75 -64.25 C 43.414062 -66.445312 40.160156 -67.546875 35.984375 -67.546875 L 20.046875 -67.546875 L 20.046875 -43.078125 L 35.984375 -43.078125 C 40.160156 -43.078125 43.414062 -44.140625 45.75 -46.265625 C 48.082031 -48.390625 49.25 -51.367188 49.25 -55.203125 Z M 20.046875 -8.53125 L 40.71875 -8.53125 C 45.164062 -8.53125 48.65625 -9.710938 51.1875 -12.078125 C 53.726562 -14.441406 55 -17.71875 55 -21.90625 C 55 -26.007812 53.726562 -29.226562 51.1875 -31.5625 C 48.65625 -33.894531 45.164062 -35.0625 40.71875 -35.0625 L 20.046875 -35.0625 Z M 20.046875 -8.53125 "/></g></g><g style="fill:#000000;fill-opacity:1;"><g transform="translate(476.127387, 230.224911)"><path style="stroke:none" d="M 20.046875 -76.078125 L 20.046875 -8.84375 L 54.484375 -8.84375 L 54.484375 0 L 9.25 0 L 9.25 -76.078125 Z M 20.046875 -76.078125 "/></g></g><g style="fill:#000000;fill-opacity:1;"><g transform="translate(530.4066, 230.224911)"><path style="stroke:none" d="M 20.046875 -34.859375 L 20.046875 -8.53125 L 60.859375 -8.53125 L 60.859375 0 L 9.25 0 L 9.25 -76.078125 L 59.734375 -76.078125 L 59.734375 -67.546875 L 20.046875 -67.546875 L 20.046875 -43.484375 L 56.140625 -43.484375 L 56.140625 -34.859375 Z M 20.046875 -34.859375 "/></g></g><g style="fill:#000000;fill-opacity:1;"><g transform="translate(593.423945, 230.224911)"><path style="stroke:none" d="M 34.234375 1.03125 C 25.390625 1.03125 18.3125 -1.363281 13 -6.15625 C 7.6875 -10.957031 4.722656 -17.675781 4.109375 -26.3125 L 14.8125 -26.3125 C 15.21875 -20.488281 17.148438 -15.945312 20.609375 -12.6875 C 24.078125 -9.4375 28.6875 -7.8125 34.4375 -7.8125 C 40.40625 -7.8125 45.050781 -8.992188 48.375 -11.359375 C 51.695312 -13.722656 53.359375 -17.03125 53.359375 -21.28125 C 53.359375 -24.78125 52.363281 -27.398438 50.375 -29.140625 C 48.382812 -30.890625 45.8125 -32.160156 42.65625 -32.953125 C 39.507812 -33.742188 36.15625 -34.410156 32.59375 -34.953125 C 29.507812 -35.429688 26.40625 -36.015625 23.28125 -36.703125 C 20.164062 -37.390625 17.320312 -38.398438 14.75 -39.734375 C 12.175781 -41.066406 10.117188 -42.96875 8.578125 -45.4375 C 7.035156 -47.90625 6.265625 -51.128906 6.265625 -55.109375 C 6.265625 -62.234375 8.734375 -67.679688 13.671875 -71.453125 C 18.609375 -75.222656 25.460938 -77.109375 34.234375 -77.109375 C 42.460938 -77.109375 49.039062 -74.796875 53.96875 -70.171875 C 58.90625 -65.546875 61.648438 -59.15625 62.203125 -51 L 51.609375 -51 C 51.335938 -56.476562 49.625 -60.722656 46.46875 -63.734375 C 43.3125 -66.753906 39.097656 -68.265625 33.828125 -68.265625 C 28.617188 -68.265625 24.539062 -67.1875 21.59375 -65.03125 C 18.644531 -62.875 17.171875 -59.804688 17.171875 -55.828125 C 17.171875 -52.878906 18.078125 -50.632812 19.890625 -49.09375 C 21.710938 -47.550781 24.113281 -46.4375 27.09375 -45.75 C 30.070312 -45.0625 33.238281 -44.445312 36.59375 -43.90625 C 39.820312 -43.425781 43.078125 -42.804688 46.359375 -42.046875 C 49.648438 -41.296875 52.648438 -40.195312 55.359375 -38.75 C 58.066406 -37.3125 60.242188 -35.273438 61.890625 -32.640625 C 63.535156 -30.003906 64.359375 -26.523438 64.359375 -22.203125 C 64.359375 -14.941406 61.703125 -9.253906 56.390625 -5.140625 C 51.078125 -1.023438 43.691406 1.03125 34.234375 1.03125 Z M 34.234375 1.03125 "/></g></g></g></svg>