<svg xmlns="http://www.w3.org/2000/svg" xmlns:xlink="http://www.w3.org/1999/xlink" width="1056" zoomAndPan="magnify" viewBox="0 0 792 791.999994" height="1056" preserveAspectRatio="xMidYMid meet" version="1.2"><defs><clipPath id="453eaad91b"><path d="M 135 167.070312 L 658 167.070312 L 658 624.570312 L 135 624.570312 Z M 135 167.070312 "/></clipPath></defs><g id="ec1f9c8153"><g clip-rule="nonzero" clip-path="url(#453eaad91b)"><path style=" stroke:none;fill-rule:nonzero;fill:#747474;fill-opacity:1;" d="M 549.132812 240.339844 C 539.636719 230.503906 529.265625 221.488281 518.214844 213.445312 C 514 210.34375 509.347656 207.242188 504.113281 203.949219 C 465.542969 179.816406 421.007812 167.070312 375.3125 167.070312 C 243.019531 167.070312 135.390625 272.808594 135.390625 402.773438 C 135.390625 498.675781 193.734375 584.300781 284.0625 620.792969 C 284.0625 620.792969 291.1875 623.648438 295.546875 624.570312 L 364.117188 505.796875 L 460.066406 589.582031 L 657.679688 240.339844 Z M 512.207031 381.839844 L 445.964844 498.917969 L 389.316406 453.851562 L 417.035156 404.035156 L 428.808594 409.460938 C 417.90625 394.441406 405.984375 363.328125 405.890625 344.964844 L 283.289062 557.308594 C 227.316406 525.570312 192.332031 467.226562 192.332031 402.726562 C 192.28125 304.210938 274.371094 223.960938 375.3125 223.960938 C 410.347656 223.960938 444.414062 233.703125 473.875 252.164062 C 477.996094 254.734375 481.53125 257.109375 484.683594 259.433594 C 495.878906 267.574219 506.101562 277.023438 515.113281 287.441406 L 523.644531 297.28125 L 592.746094 297.28125 L 533.964844 343.558594 L 512.257812 381.9375 L 512.257812 381.839844 Z M 512.207031 381.839844 "/></g></g></svg> 