<svg xmlns="http://www.w3.org/2000/svg" xmlns:xlink="http://www.w3.org/1999/xlink" width="1056" zoomAndPan="magnify" viewBox="0 0 792 283.499996" height="378" preserveAspectRatio="xMidYMid meet" version="1.2"><defs><clipPath id="5216b56bb2"><path d="M 18.023438 65.027344 L 193.964844 65.027344 L 193.964844 217.757812 L 18.023438 217.757812 Z M 18.023438 65.027344 "/></clipPath></defs><g id="e982cef3d4"><g clip-rule="nonzero" clip-path="url(#5216b56bb2)"><path style=" stroke:none;fill-rule:nonzero;fill:#747474;fill-opacity:1;" d="M 156.835938 89.488281 C 153.664062 86.203125 150.203125 83.195312 146.515625 80.507812 C 145.109375 79.472656 143.554688 78.4375 141.808594 77.339844 C 128.929688 69.28125 114.0625 65.027344 98.808594 65.027344 C 54.644531 65.027344 18.714844 100.328125 18.714844 143.714844 C 18.714844 175.730469 38.191406 204.316406 68.347656 216.496094 C 68.347656 216.496094 70.722656 217.449219 72.179688 217.757812 L 95.070312 178.109375 L 127.101562 206.078125 L 193.074219 89.488281 Z M 144.507812 136.726562 L 122.394531 175.808594 L 103.484375 160.765625 L 112.738281 144.136719 L 116.667969 145.945312 C 113.027344 140.933594 109.046875 130.546875 109.015625 124.414062 L 68.085938 195.304688 C 49.402344 184.707031 37.722656 165.230469 37.722656 143.699219 C 37.707031 110.808594 65.109375 84.019531 98.808594 84.019531 C 110.503906 84.019531 121.878906 87.273438 131.714844 93.433594 C 133.089844 94.292969 134.269531 95.085938 135.320312 95.863281 C 139.058594 98.578125 142.472656 101.734375 145.480469 105.210938 L 148.328125 108.496094 L 171.394531 108.496094 L 151.773438 123.945312 L 144.527344 136.757812 L 144.527344 136.726562 Z M 144.507812 136.726562 "/></g><g style="fill:#747474;fill-opacity:1;"><g transform="translate(216.451468, 132.612863)"><path style="stroke:none" d="M 19.703125 -34.265625 L 19.703125 -8.390625 L 59.828125 -8.390625 L 59.828125 0 L 9.09375 0 L 9.09375 -74.78125 L 58.71875 -74.78125 L 58.71875 -66.390625 L 19.703125 -66.390625 L 19.703125 -42.75 L 55.1875 -42.75 L 55.1875 -34.265625 Z M 19.703125 -34.265625 "/></g></g><g style="fill:#747474;fill-opacity:1;"><g transform="translate(278.40438, 132.612863)"><path style="stroke:none" d="M 34.15625 -1.015625 L 55.078125 -74.78125 L 65.890625 -74.78125 L 43.359375 0 L 24.15625 0 L 1.71875 -74.78125 L 13.140625 -74.78125 L 33.953125 -1.015625 Z M 34.15625 -1.015625 "/></g></g><g style="fill:#747474;fill-opacity:1;"><g transform="translate(343.793511, 132.612863)"><path style="stroke:none" d="M 38.296875 1.015625 C 31.359375 1.015625 25.394531 -0.5 20.40625 -3.53125 C 15.425781 -6.5625 11.617188 -10.941406 8.984375 -16.671875 C 6.359375 -22.398438 5.046875 -29.304688 5.046875 -37.390625 C 5.046875 -45.472656 6.359375 -52.378906 8.984375 -58.109375 C 11.617188 -63.835938 15.425781 -68.21875 20.40625 -71.25 C 25.394531 -74.28125 31.359375 -75.796875 38.296875 -75.796875 C 45.242188 -75.796875 51.191406 -74.28125 56.140625 -71.25 C 61.085938 -68.21875 64.875 -63.835938 67.5 -58.109375 C 70.132812 -52.378906 71.453125 -45.472656 71.453125 -37.390625 C 71.453125 -29.304688 70.132812 -22.398438 67.5 -16.671875 C 64.875 -10.941406 61.085938 -6.5625 56.140625 -3.53125 C 51.191406 -0.5 45.242188 1.015625 38.296875 1.015625 Z M 38.296875 -7.6875 C 45.304688 -7.6875 50.765625 -10.296875 54.671875 -15.515625 C 58.578125 -20.734375 60.53125 -28.023438 60.53125 -37.390625 C 60.53125 -46.753906 58.578125 -54.046875 54.671875 -59.265625 C 50.765625 -64.492188 45.304688 -67.109375 38.296875 -67.109375 C 31.222656 -67.109375 25.710938 -64.492188 21.765625 -59.265625 C 17.828125 -54.046875 15.859375 -46.753906 15.859375 -37.390625 C 15.859375 -28.023438 17.828125 -20.734375 21.765625 -15.515625 C 25.710938 -10.296875 31.222656 -7.6875 38.296875 -7.6875 Z M 38.296875 -7.6875 "/></g></g><g style="fill:#747474;fill-opacity:1;"><g transform="translate(418.177478, 132.612863)"><path style="stroke:none" d="M 19.703125 -74.78125 L 19.703125 -8.6875 L 53.5625 -8.6875 L 53.5625 0 L 9.09375 0 L 9.09375 -74.78125 Z M 19.703125 -74.78125 "/></g></g><g style="fill:#747474;fill-opacity:1;"><g transform="translate(471.539816, 132.612863)"><path style="stroke:none" d="M 36.375 1.015625 C 27.625 1.015625 20.769531 -1.375 15.8125 -6.15625 C 10.863281 -10.945312 8.390625 -17.550781 8.390625 -25.96875 L 8.390625 -74.78125 L 18.90625 -74.78125 L 18.90625 -25.359375 C 18.90625 -19.835938 20.46875 -15.507812 23.59375 -12.375 C 26.726562 -9.25 31.09375 -7.6875 36.6875 -7.6875 C 42.28125 -7.6875 46.640625 -9.25 49.765625 -12.375 C 52.898438 -15.507812 54.46875 -19.835938 54.46875 -25.359375 L 54.46875 -74.78125 L 64.484375 -74.78125 L 64.484375 -25.96875 C 64.484375 -17.550781 62.003906 -10.945312 57.046875 -6.15625 C 52.097656 -1.375 45.207031 1.015625 36.375 1.015625 Z M 36.375 1.015625 "/></g></g><g style="fill:#747474;fill-opacity:1;"><g transform="translate(542.285421, 132.612863)"><path style="stroke:none" d="M 1.8125 -74.78125 L 57.703125 -74.78125 L 57.703125 -66.390625 L 35.0625 -66.390625 L 35.0625 0 L 24.453125 0 L 24.453125 -66.390625 L 1.8125 -66.390625 Z M 1.8125 -74.78125 "/></g></g><g style="fill:#747474;fill-opacity:1;"><g transform="translate(599.690391, 132.612863)"><path style="stroke:none" d="M 19.703125 0 L 9.09375 0 L 9.09375 -74.78125 L 19.703125 -74.78125 Z M 19.703125 0 "/></g></g><g style="fill:#747474;fill-opacity:1;"><g transform="translate(626.371455, 132.612863)"><path style="stroke:none" d="M 38.296875 1.015625 C 31.359375 1.015625 25.394531 -0.5 20.40625 -3.53125 C 15.425781 -6.5625 11.617188 -10.941406 8.984375 -16.671875 C 6.359375 -22.398438 5.046875 -29.304688 5.046875 -37.390625 C 5.046875 -45.472656 6.359375 -52.378906 8.984375 -58.109375 C 11.617188 -63.835938 15.425781 -68.21875 20.40625 -71.25 C 25.394531 -74.28125 31.359375 -75.796875 38.296875 -75.796875 C 45.242188 -75.796875 51.191406 -74.28125 56.140625 -71.25 C 61.085938 -68.21875 64.875 -63.835938 67.5 -58.109375 C 70.132812 -52.378906 71.453125 -45.472656 71.453125 -37.390625 C 71.453125 -29.304688 70.132812 -22.398438 67.5 -16.671875 C 64.875 -10.941406 61.085938 -6.5625 56.140625 -3.53125 C 51.191406 -0.5 45.242188 1.015625 38.296875 1.015625 Z M 38.296875 -7.6875 C 45.304688 -7.6875 50.765625 -10.296875 54.671875 -15.515625 C 58.578125 -20.734375 60.53125 -28.023438 60.53125 -37.390625 C 60.53125 -46.753906 58.578125 -54.046875 54.671875 -59.265625 C 50.765625 -64.492188 45.304688 -67.109375 38.296875 -67.109375 C 31.222656 -67.109375 25.710938 -64.492188 21.765625 -59.265625 C 17.828125 -54.046875 15.859375 -46.753906 15.859375 -37.390625 C 15.859375 -28.023438 17.828125 -20.734375 21.765625 -15.515625 C 25.710938 -10.296875 31.222656 -7.6875 38.296875 -7.6875 Z M 38.296875 -7.6875 "/></g></g><g style="fill:#747474;fill-opacity:1;"><g transform="translate(700.755411, 132.612863)"><path style="stroke:none" d="M 56.296875 -1.015625 L 55.984375 -74.78125 L 66 -74.78125 L 66 0 L 47.90625 0 L 19.09375 -73.78125 L 18.90625 -73.78125 L 19.296875 0 L 9.09375 0 L 9.09375 -74.78125 L 27.28125 -74.78125 L 56.09375 -1.015625 Z M 56.296875 -1.015625 "/></g></g><g style="fill:#747474;fill-opacity:1;"><g transform="translate(216.451468, 223.358576)"><path style="stroke:none" d="M 33.65625 1.015625 C 24.957031 1.015625 18 -1.34375 12.78125 -6.0625 C 7.5625 -10.78125 4.648438 -17.382812 4.046875 -25.875 L 14.546875 -25.875 C 14.953125 -20.144531 16.851562 -15.679688 20.25 -12.484375 C 23.65625 -9.285156 28.191406 -7.6875 33.859375 -7.6875 C 39.710938 -7.6875 44.273438 -8.847656 47.546875 -11.171875 C 50.816406 -13.492188 52.453125 -16.742188 52.453125 -20.921875 C 52.453125 -24.359375 51.472656 -26.9375 49.515625 -28.65625 C 47.566406 -30.375 45.039062 -31.617188 41.9375 -32.390625 C 38.84375 -33.160156 35.539062 -33.816406 32.03125 -34.359375 C 29 -34.828125 25.953125 -35.398438 22.890625 -36.078125 C 19.828125 -36.753906 17.03125 -37.75 14.5 -39.0625 C 11.976562 -40.375 9.957031 -42.242188 8.4375 -44.671875 C 6.925781 -47.097656 6.171875 -50.265625 6.171875 -54.171875 C 6.171875 -61.179688 8.59375 -66.535156 13.4375 -70.234375 C 18.289062 -73.941406 25.03125 -75.796875 33.65625 -75.796875 C 41.738281 -75.796875 48.203125 -73.519531 53.046875 -68.96875 C 57.898438 -64.425781 60.597656 -58.144531 61.140625 -50.125 L 50.734375 -50.125 C 50.460938 -55.519531 48.773438 -59.695312 45.671875 -62.65625 C 42.578125 -65.625 38.4375 -67.109375 33.25 -67.109375 C 28.125 -67.109375 24.113281 -66.046875 21.21875 -63.921875 C 18.320312 -61.796875 16.875 -58.78125 16.875 -54.875 C 16.875 -51.976562 17.765625 -49.769531 19.546875 -48.25 C 21.335938 -46.738281 23.695312 -45.644531 26.625 -44.96875 C 29.5625 -44.300781 32.679688 -43.695312 35.984375 -43.15625 C 39.148438 -42.6875 42.347656 -42.078125 45.578125 -41.328125 C 48.816406 -40.585938 51.765625 -39.507812 54.421875 -38.09375 C 57.085938 -36.6875 59.226562 -34.6875 60.84375 -32.09375 C 62.457031 -29.5 63.265625 -26.078125 63.265625 -21.828125 C 63.265625 -14.679688 60.648438 -9.085938 55.421875 -5.046875 C 50.203125 -1.003906 42.945312 1.015625 33.65625 1.015625 Z M 33.65625 1.015625 "/></g></g><g style="fill:#747474;fill-opacity:1;"><g transform="translate(281.941669, 223.358576)"><path style="stroke:none" d="M 1.8125 -74.78125 L 57.703125 -74.78125 L 57.703125 -66.390625 L 35.0625 -66.390625 L 35.0625 0 L 24.453125 0 L 24.453125 -66.390625 L 1.8125 -66.390625 Z M 1.8125 -74.78125 "/></g></g><g style="fill:#747474;fill-opacity:1;"><g transform="translate(339.346639, 223.358576)"><path style="stroke:none" d="M 69.328125 0 L 57.90625 0 L 52.046875 -18.796875 L 17.78125 -18.796875 L 11.921875 0 L 1.109375 0 L 25.96875 -74.78125 L 44.671875 -74.78125 Z M 34.859375 -73.78125 L 20.421875 -27.28125 L 49.421875 -27.28125 L 35.0625 -73.78125 Z M 34.859375 -73.78125 "/></g></g><g style="fill:#747474;fill-opacity:1;"><g transform="translate(407.666668, 223.358576)"><path style="stroke:none" d="M 39.21875 -42.140625 L 40.625 -42.140625 C 48.300781 -42.140625 54.28125 -40.320312 58.5625 -36.6875 C 62.84375 -33.050781 64.984375 -28 64.984375 -21.53125 C 64.984375 -14.789062 62.742188 -9.515625 58.265625 -5.703125 C 53.785156 -1.898438 47.535156 0 39.515625 0 L 9.09375 0 L 9.09375 -74.78125 L 38.8125 -74.78125 C 45.28125 -74.78125 50.316406 -73.296875 53.921875 -70.328125 C 57.523438 -67.367188 59.328125 -63.195312 59.328125 -57.8125 C 59.328125 -52.957031 57.554688 -49.164062 54.015625 -46.4375 C 50.484375 -43.707031 45.550781 -42.34375 39.21875 -42.34375 Z M 48.40625 -54.265625 C 48.40625 -58.046875 47.257812 -61.007812 44.96875 -63.15625 C 42.675781 -65.3125 39.476562 -66.390625 35.375 -66.390625 L 19.703125 -66.390625 L 19.703125 -42.34375 L 35.375 -42.34375 C 39.476562 -42.34375 42.675781 -43.382812 44.96875 -45.46875 C 47.257812 -47.5625 48.40625 -50.492188 48.40625 -54.265625 Z M 19.703125 -8.390625 L 40.015625 -8.390625 C 44.398438 -8.390625 47.835938 -9.550781 50.328125 -11.875 C 52.816406 -14.195312 54.0625 -17.414062 54.0625 -21.53125 C 54.0625 -25.570312 52.816406 -28.738281 50.328125 -31.03125 C 47.835938 -33.320312 44.398438 -34.46875 40.015625 -34.46875 L 19.703125 -34.46875 Z M 19.703125 -8.390625 "/></g></g><g style="fill:#747474;fill-opacity:1;"><g transform="translate(474.773903, 223.358576)"><path style="stroke:none" d="M 19.703125 -74.78125 L 19.703125 -8.6875 L 53.5625 -8.6875 L 53.5625 0 L 9.09375 0 L 9.09375 -74.78125 Z M 19.703125 -74.78125 "/></g></g><g style="fill:#747474;fill-opacity:1;"><g transform="translate(528.136262, 223.358576)"><path style="stroke:none" d="M 19.703125 -34.265625 L 19.703125 -8.390625 L 59.828125 -8.390625 L 59.828125 0 L 9.09375 0 L 9.09375 -74.78125 L 58.71875 -74.78125 L 58.71875 -66.390625 L 19.703125 -66.390625 L 19.703125 -42.75 L 55.1875 -42.75 L 55.1875 -34.265625 Z M 19.703125 -34.265625 "/></g></g><g style="fill:#747474;fill-opacity:1;"><g transform="translate(590.089153, 223.358576)"><path style="stroke:none" d="M 33.65625 1.015625 C 24.957031 1.015625 18 -1.34375 12.78125 -6.0625 C 7.5625 -10.78125 4.648438 -17.382812 4.046875 -25.875 L 14.546875 -25.875 C 14.953125 -20.144531 16.851562 -15.679688 20.25 -12.484375 C 23.65625 -9.285156 28.191406 -7.6875 33.859375 -7.6875 C 39.710938 -7.6875 44.273438 -8.847656 47.546875 -11.171875 C 50.816406 -13.492188 52.453125 -16.742188 52.453125 -20.921875 C 52.453125 -24.359375 51.472656 -26.9375 49.515625 -28.65625 C 47.566406 -30.375 45.039062 -31.617188 41.9375 -32.390625 C 38.84375 -33.160156 35.539062 -33.816406 32.03125 -34.359375 C 29 -34.828125 25.953125 -35.398438 22.890625 -36.078125 C 19.828125 -36.753906 17.03125 -37.75 14.5 -39.0625 C 11.976562 -40.375 9.957031 -42.242188 8.4375 -44.671875 C 6.925781 -47.097656 6.171875 -50.265625 6.171875 -54.171875 C 6.171875 -61.179688 8.59375 -66.535156 13.4375 -70.234375 C 18.289062 -73.941406 25.03125 -75.796875 33.65625 -75.796875 C 41.738281 -75.796875 48.203125 -73.519531 53.046875 -68.96875 C 57.898438 -64.425781 60.597656 -58.144531 61.140625 -50.125 L 50.734375 -50.125 C 50.460938 -55.519531 48.773438 -59.695312 45.671875 -62.65625 C 42.578125 -65.625 38.4375 -67.109375 33.25 -67.109375 C 28.125 -67.109375 24.113281 -66.046875 21.21875 -63.921875 C 18.320312 -61.796875 16.875 -58.78125 16.875 -54.875 C 16.875 -51.976562 17.765625 -49.769531 19.546875 -48.25 C 21.335938 -46.738281 23.695312 -45.644531 26.625 -44.96875 C 29.5625 -44.300781 32.679688 -43.695312 35.984375 -43.15625 C 39.148438 -42.6875 42.347656 -42.078125 45.578125 -41.328125 C 48.816406 -40.585938 51.765625 -39.507812 54.421875 -38.09375 C 57.085938 -36.6875 59.226562 -34.6875 60.84375 -32.09375 C 62.457031 -29.5 63.265625 -26.078125 63.265625 -21.828125 C 63.265625 -14.679688 60.648438 -9.085938 55.421875 -5.046875 C 50.203125 -1.003906 42.945312 1.015625 33.65625 1.015625 Z M 33.65625 1.015625 "/></g></g></g></svg>