<svg xmlns="http://www.w3.org/2000/svg" xmlns:xlink="http://www.w3.org/1999/xlink" width="1056" zoomAndPan="magnify" viewBox="0 0 792 791.999994" height="1056" preserveAspectRatio="xMidYMid meet" version="1.2"><defs><clipPath id="c953082992"><path d="M 151 174.125 L 659 174.125 L 659 618 L 151 618 Z M 151 174.125 "/></clipPath></defs><g id="65d546ca51"><g clip-rule="nonzero" clip-path="url(#c953082992)"><path style=" stroke:none;fill-rule:nonzero;fill:#000000;fill-opacity:1;" d="M 552.867188 245.191406 C 543.65625 235.652344 533.597656 226.910156 522.878906 219.105469 C 518.792969 216.097656 514.28125 213.089844 509.203125 209.894531 C 471.789062 186.488281 428.59375 174.125 384.273438 174.125 C 255.957031 174.125 151.566406 276.683594 151.566406 402.742188 C 151.566406 495.757812 208.15625 578.808594 295.769531 614.203125 C 295.769531 614.203125 302.679688 616.976562 306.910156 617.867188 L 373.414062 502.667969 L 466.480469 583.933594 L 658.152344 245.191406 Z M 517.050781 382.4375 L 452.800781 495.992188 L 397.855469 452.28125 L 424.742188 403.964844 L 436.164062 409.226562 C 425.585938 394.65625 414.023438 364.484375 413.929688 346.667969 L 295.015625 552.628906 C 240.730469 521.84375 206.796875 465.253906 206.796875 402.695312 C 206.746094 307.140625 286.367188 229.304688 384.273438 229.304688 C 418.253906 229.304688 451.296875 238.753906 479.875 256.660156 C 483.871094 259.152344 487.300781 261.457031 490.355469 263.710938 C 501.214844 271.609375 511.128906 280.773438 519.871094 290.878906 L 528.144531 300.417969 L 595.167969 300.417969 L 538.15625 345.304688 L 517.097656 382.53125 L 517.097656 382.4375 Z M 517.050781 382.4375 "/></g></g></svg> 