<svg xmlns="http://www.w3.org/2000/svg" xmlns:xlink="http://www.w3.org/1999/xlink" width="1056" zoomAndPan="magnify" viewBox="0 0 792 791.999994" height="1056" preserveAspectRatio="xMidYMid meet" version="1.2"><defs><clipPath id="8f4fbc7884"><path d="M 56 93.449219 L 748 93.449219 L 748 698.699219 L 56 698.699219 Z M 56 93.449219 "/></clipPath></defs><g id="65331182fc"><g clip-rule="nonzero" clip-path="url(#8f4fbc7884)"><path style=" stroke:none;fill-rule:nonzero;fill:#d4a964;fill-opacity:1;" d="M 603.882812 190.378906 C 591.324219 177.367188 577.613281 165.441406 563.003906 154.800781 C 557.429688 150.695312 551.28125 146.59375 544.359375 142.234375 C 493.363281 110.308594 434.480469 93.449219 374.0625 93.449219 C 199.152344 93.449219 56.855469 233.332031 56.855469 405.273438 C 56.855469 532.144531 133.992188 645.421875 253.421875 693.695312 C 253.421875 693.695312 262.839844 697.480469 268.605469 698.699219 L 359.261719 541.566406 L 486.121094 652.410156 L 747.398438 190.378906 Z M 555.0625 377.578125 L 467.476562 532.464844 L 392.578125 472.84375 L 429.226562 406.9375 L 444.796875 414.117188 C 430.382812 394.246094 414.621094 353.085938 414.492188 328.789062 L 252.394531 609.714844 C 178.394531 567.722656 132.136719 490.535156 132.136719 405.207031 C 132.070312 274.875 240.605469 168.710938 374.0625 168.710938 C 420.386719 168.710938 465.425781 181.597656 504.382812 206.023438 C 509.828125 209.421875 514.503906 212.5625 518.667969 215.636719 C 533.46875 226.410156 546.988281 238.910156 558.90625 252.695312 L 570.179688 265.707031 L 661.546875 265.707031 L 583.828125 326.929688 L 555.125 377.707031 L 555.125 377.578125 Z M 555.0625 377.578125 "/></g></g></svg> 